<svg xmlns="http://www.w3.org/2000/svg" width="970" height="34" fill="none" viewBox="0 0 970 34"><defs><path id="a" fill="#00f4bf" d="M654.969.01 639.55 32.68l.67.444L655.639.453zm14.846 0-15.418 32.67.67.444L670.485.454zm14.843 0L669.24 32.68l.67.444L685.328.454zm14.847 0-15.419 32.67.67.444L700.175.454zm14.842 0-15.418 32.67.67.445L715.017.455zm14.843.001-15.418 32.67.67.444L729.86.455zm14.847 0-15.418 32.67.67.444L744.707.455z"/></defs><path fill="#00f4bf" d="M15.418 0 0 32.67l.67.444L16.088.444zm14.847 0L14.847 32.67l.67.444L30.935.444zm14.843 0L29.69 32.67l.67.444L45.778.444zm14.846.001-15.418 32.67.67.444L60.624.445zm14.843 0L59.38 32.671l.67.444L75.467.445zM89.64.002l-15.418 32.67.67.443L90.31.445zm14.847 0-15.418 32.67.67.444L105.157.446zm14.843 0-15.418 32.67.67.444L120 .446zm14.847 0-15.419 32.67.67.444L134.847.446zm14.84.005-15.418 32.67.67.444L149.687.45zm14.844 0-15.419 32.67.67.444L164.531.45zm14.846 0-15.418 32.67.67.444L179.377.451zm14.843.001-15.418 32.67.67.444L194.22.451zm14.847 0-15.418 32.67.67.444L209.067.452zm14.842 0-15.418 32.67.67.444L223.91.452zm14.843.001-15.418 32.67.67.444L238.752.453zm14.847 0-15.418 32.67.67.444L253.599.453zm14.843.001-15.418 32.669.67.444L268.442.453zm14.843 0-15.418 32.67.67.444L283.285.453zm14.847 0-15.419 32.67.67.444L298.132.454zm14.842 0-15.418 32.67.67.444L312.974.454zm14.847 0-15.418 32.67.67.444L327.821.454zm14.843 0-15.418 32.67.67.445L342.664.455zm14.843.001-15.419 32.67.67.444L357.507.455zm14.846 0-15.418 32.67.67.444L372.353.455zM387.772 0l-15.418 32.67.67.444L388.442.444zm14.846 0L387.2 32.67l.67.444L403.288.444zm14.843 0-15.418 32.67.67.444L418.131.444zm14.847.001-15.418 32.67.67.444L432.978.445zm14.843 0-15.419 32.67.67.444L447.821.445zm14.842.001-15.418 32.67.67.443L462.663.445zm14.848 0-15.419 32.67.67.444L477.511.446zm14.842 0-15.418 32.67.67.444L492.353.446zm14.847 0-15.418 32.67.67.444L507.2.446zm14.841.005-15.418 32.67.67.444L522.041.45zm14.843 0-15.418 32.67.67.444L536.884.45zm14.846 0-15.418 32.67.67.444L551.73.451zm14.844.001-15.419 32.67.67.444L566.574.451zm14.846 0-15.418 32.67.67.444L581.42.452zm14.843 0-15.418 32.67.67.444L596.263.452zm14.843.001-15.418 32.67.67.444L611.106.453zm14.846 0-15.418 32.67.67.444L625.953.453zm14.843.001-15.418 32.669.67.444L640.795.453zm14.844 0L639.55 32.68l.67.444L655.639.453zm14.846 0-15.418 32.67.67.444L670.485.454zm14.843 0L669.24 32.68l.67.444L685.328.454zm14.847 0-15.419 32.67.67.444L700.175.454zm14.842 0-15.418 32.67.67.445L715.017.455zm14.843.001-15.418 32.67.67.444L729.86.455zm14.847 0-15.418 32.67.67.444L744.707.455z"/><use href="#a"/><use href="#a"/><path fill="#00f4bf" d="M654.969.01 639.55 32.68l.67.444L655.639.453zm14.846 0-15.418 32.67.67.444L670.485.454zm14.843 0L669.24 32.68l.67.444L685.328.454zm14.847 0-15.419 32.67.67.444L700.175.454zm14.842 0-15.418 32.67.67.445L715.017.455zm14.843.001-15.418 32.67.67.444L729.86.455zm14.847 0-15.418 32.67.67.444L744.707.455zm16.088-.005-15.418 32.67.67.444L760.795.45zm16.089 0-15.419 32.67.67.444L776.884.45zm16.088 0-15.418 32.67.67.444L792.972.45zm16.088 0-15.418 32.67.67.444L809.06.45zm16.088 0-15.418 32.67.67.444L825.148.45zm16.089 0-15.419 32.67.67.444L841.237.45zm16.088 0-15.418 32.67.67.444L857.325.45zm16.088 0-15.418 32.67.67.444L873.413.45zm16.088 0-15.418 32.67.67.444L889.501.45zm16.089 0-15.419 32.67.67.444L905.59.45zm16.088 0-15.418 32.67.67.444L921.678.45zm16.088 0-15.418 32.67.67.444L937.766.45zm16.088 0-15.418 32.67.67.444L953.854.45zm16.089 0-15.419 32.67.671.444L969.943.45z"/></svg>