<svg xmlns="http://www.w3.org/2000/svg" width="224" height="133" fill="none" viewBox="0 0 224 133"><path fill="#3567e9" fill-rule="evenodd" d="M93.064 132.125v-5.678h-4.653v5.678H16.429C7.355 132.125 0 124.739 0 115.628c0-9 7.607-15.996 15.45-20.354 10.21-5.675 17.122-16.601 17.122-29.149 0-12.547-6.913-23.474-17.123-29.148C7.607 32.619 0 25.623 0 16.623 0 7.51 7.355.124 16.429.124H88.41v5.679h4.653V.125H207.57c9.075 0 16.43 7.386 16.43 16.498 0 9-7.607 15.996-15.449 20.354-10.211 5.674-17.123 16.6-17.123 29.148s6.912 23.474 17.123 29.149C216.393 99.632 224 106.628 224 115.628c0 9.111-7.355 16.497-16.429 16.497zm0-14.958v-9.28h-4.653v9.28zm0-18.56v-9.281h-4.653v9.28zm0-18.561v-9.28h-4.653v9.28zm0-18.56v-9.28h-4.653v9.28zm0-18.561v-9.28h-4.653v9.28zm0-18.56v-9.28h-4.653v9.28z" clip-rule="evenodd"/></svg>