<svg xmlns="http://www.w3.org/2000/svg" width="197" height="36" fill="none" viewBox="0 0 197 36"><defs><path id="a" fill="#3567e9" d="M35.072 0v1.549h1.246V0H55.6C58.03 0 60 2.014 60 4.5c0 2.454-2.038 4.362-4.138 5.55-2.735 1.548-4.587 4.528-4.587 7.95s1.852 6.402 4.587 7.95C57.962 27.138 60 29.046 60 31.5c0 2.486-1.97 4.5-4.4 4.5H36.317v-1.549h-1.246V36H4.401C1.97 36 0 33.986 0 31.5c0-2.454 2.038-4.362 4.138-5.55 2.735-1.548 4.587-4.528 4.587-7.95s-1.852-6.402-4.587-7.95C2.038 8.862 0 6.954 0 4.5 0 2.013 1.97 0 4.4 0zm0 4.08v2.53h1.246V4.08zm0 5.062v2.53h1.246v-2.53zm0 5.062v2.53h1.246v-2.53zm0 5.061v2.531h1.246v-2.53zm0 5.062v2.531h1.246v-2.53zm0 5.062v2.531h1.246v-2.53z"/></defs><use fill-rule="evenodd" clip-rule="evenodd" href="#a"/><path fill="#fff" fill-rule="evenodd" d="M118.728 8.253v20.153h5.476V8.253zm.655-3.425a2.94 2.94 0 0 0 2.096.827q1.221 0 2.082-.827.874-.84.874-2.007 0-1.155-.874-1.981a2.87 2.87 0 0 0-2.082-.84q-1.222 0-2.096.84-.861.826-.861 1.981 0 1.168.861 2.007m-2.775 3.425v4.199h-3.715v9.761q0 .775.231 1.207.232.42.643.59.425.172.977.171.385 0 .772-.065.385-.08.591-.118l.861 4.16q-.411.13-1.157.3-.746.185-1.812.224-1.98.078-3.471-.538-1.479-.617-2.301-1.916-.824-1.299-.81-3.28V12.452h-2.7v-4.2h2.7V3.426h5.476v4.828zM74.151 27.54q2.198 1.26 5.245 1.26 2.443 0 4.306-.761 1.877-.774 3.06-2.152a7.1 7.1 0 0 0 1.581-3.254l-5.065-.34a3.4 3.4 0 0 1-.823 1.285q-.54.525-1.298.787a5.1 5.1 0 0 1-1.671.263q-1.376 0-2.378-.59a4 4 0 0 1-1.556-1.68q-.54-1.09-.54-2.585v-.013H88.46v-1.535q0-2.572-.707-4.488-.707-1.928-1.98-3.201a8.05 8.05 0 0 0-2.957-1.903q-1.683-.642-3.638-.642-2.905 0-5.065 1.312-2.145 1.312-3.33 3.66-1.182 2.349-1.182 5.459 0 3.188 1.183 5.523 1.181 2.323 3.368 3.595m.866-11.244a4.4 4.4 0 0 1 .548-1.981 4.1 4.1 0 0 1 1.491-1.562q.965-.59 2.211-.59 1.196 0 2.096.538.912.525 1.427 1.456.513.931.514 2.139zm27.87 2.214v-2.64h-4.293v2.64zm-12.007 0v-2.64h4.482v2.64zm45.184 10.29q-3.033 0-5.219-1.312-2.172-1.325-3.342-3.674-1.157-2.348-1.157-5.406 0-3.096 1.17-5.432 1.182-2.348 3.355-3.66 2.172-1.325 5.168-1.325 2.584 0 4.525.957 1.941.958 3.072 2.69t1.247 4.068h-5.168q-.218-1.509-1.157-2.428-.926-.93-2.429-.931-1.273 0-2.224.708-.94.696-1.466 2.034-.527 1.338-.527 3.24 0 1.93.514 3.28.527 1.353 1.479 2.06.95.71 2.224.71.938 0 1.684-.394a3.3 3.3 0 0 0 1.247-1.142q.5-.76.655-1.824h5.168q-.129 2.31-1.234 4.068-1.094 1.745-3.021 2.729-1.929.984-4.564.984m16.354-6.792v6.398h-5.477V1.536h5.477v14.366h.295l6.325-7.65h6.286l-7.323 8.73 7.696 11.424h-6.415l-5.38-8.128zM174.75 28.8q-3.047 0-5.245-1.26-2.186-1.272-3.368-3.595-1.183-2.335-1.183-5.523 0-3.11 1.183-5.459 1.182-2.348 3.329-3.66 2.16-1.312 5.065-1.312 1.954 0 3.638.642a8.1 8.1 0 0 1 2.957 1.903q1.272 1.273 1.98 3.201.707 1.915.707 4.488v1.535h-13.447v.013q0 1.496.54 2.585a4 4 0 0 0 1.555 1.68q1.004.59 2.379.59.912 0 1.671-.263a3.5 3.5 0 0 0 1.298-.787q.54-.525.823-1.286l5.065.341a7.1 7.1 0 0 1-1.581 3.254q-1.183 1.378-3.06 2.152-1.863.76-4.306.761m-3.831-14.485a4.4 4.4 0 0 0-.548 1.98h8.287q0-1.206-.515-2.138a3.7 3.7 0 0 0-1.426-1.456q-.9-.538-2.096-.538-1.246 0-2.211.59a4.1 4.1 0 0 0-1.491 1.562m25.522-1.863v-4.2h-3.715V3.426h-5.476v4.828h-2.7v4.199h2.7v10.496q-.013 1.981.81 3.28.822 1.3 2.301 1.916 1.491.616 3.471.538 1.066-.039 1.812-.223a15 15 0 0 0 1.157-.302l-.861-4.16q-.205.04-.592.119a4.6 4.6 0 0 1-.771.066q-.552 0-.977-.171a1.3 1.3 0 0 1-.643-.59q-.231-.434-.231-1.208v-9.761z" clip-rule="evenodd"/><mask id="b" width="60" height="36" x="0" y="0" maskUnits="userSpaceOnUse" style="mask-type:alpha"><use fill-rule="evenodd" clip-rule="evenodd" href="#a"/></mask><g mask="url(#b)"><path fill="#00f4bf" d="M35-1h35v41H35z"/></g></svg>